<svg width="62" height="62" viewBox="0 0 62 62" fill="none" xmlns="http://www.w3.org/2000/svg">
<rect x="0.906548" y="9.02333" width="52.4535" height="52.4535" rx="8.72674" transform="rotate(-8.90184 0.906548 9.02333)" fill="#1FA83F" style="mix-blend-mode:color-dodge"/>
<path d="M15.9031 42.8369L20.0892 21.9453L22.6005 21.552L32.9457 40.1675L30.4344 40.5608L27.8331 35.7648L19.4246 37.0818L18.3861 42.448L15.9031 42.8369ZM19.8295 35.0526L26.8272 33.9566L21.7992 24.7417L19.8295 35.0526ZM33.3975 32.7251L33.0837 30.7217L38.473 29.8776L37.6687 24.7423L39.7849 24.4108L40.5892 29.5462L45.9785 28.702L46.2923 30.7054L40.903 31.5495L41.7118 36.7131L39.5956 37.0445L38.7868 31.881L33.3975 32.7251Z" fill="#13B718" style="mix-blend-mode:color-dodge"/>
<rect x="0.906548" y="9.02333" width="52.4535" height="52.4535" rx="8.72674" transform="rotate(-8.90184 0.906548 9.02333)" stroke="#4A4A4A" stroke-width="1.58668" style="mix-blend-mode:color-dodge"/>
</svg>
