<svg width="45" height="47" viewBox="0 0 45 47" fill="none" xmlns="http://www.w3.org/2000/svg">
<rect x="5.94958" y="0.677129" width="38.2734" height="40.2734" rx="6.63669" transform="rotate(7.52248 5.94958 0.677129)" fill="#C09F19" style="mix-blend-mode:color-dodge"/>
<path d="M10.5045 29.1552L12.495 14.082L17.7921 14.7815C18.8544 14.9217 19.7073 15.2096 20.3509 15.6452C21.0107 16.0682 21.474 16.5968 21.7408 17.2309C22.0095 17.8506 22.0965 18.5193 22.0017 19.2371C21.8728 20.2133 21.5058 20.9462 20.9007 21.4359C20.31 21.9275 19.6344 22.2327 18.8738 22.3513C19.4204 22.5258 19.9006 22.8156 20.3145 23.2208C20.7284 23.6259 21.0304 24.104 21.2206 24.6549C21.4251 25.2077 21.4866 25.7928 21.4051 26.4101C21.3046 27.1709 21.026 27.8425 20.5694 28.4248C20.1146 28.9928 19.4965 29.4151 18.7151 29.6917C17.9356 29.9539 17.0219 30.0158 15.9739 29.8774L10.5045 29.1552ZM13.4336 20.91L16.7928 21.3535C17.7546 21.4806 18.5233 21.3557 19.0989 20.9789C19.6763 20.5878 20.0181 19.9903 20.1243 19.1864C20.2248 18.4255 20.0469 17.7813 19.5908 17.2537C19.149 16.7279 18.4185 16.3978 17.3993 16.2632L14.1047 15.8281L13.4336 20.91ZM12.5123 27.8867L15.9792 28.3445C17.0128 28.481 17.8408 28.3493 18.4632 27.9495C19.0875 27.5354 19.4565 26.8976 19.5703 26.0363C19.6821 25.1893 19.4769 24.4758 18.9547 23.8956C18.4344 23.3011 17.6718 22.9375 16.6669 22.8048L13.2431 22.3527L12.5123 27.8867ZM23.8601 25.3321L24.062 23.8032L32.5891 24.9293L32.3873 26.4581L23.8601 25.3321Z" fill="#D9B426" style="mix-blend-mode:color-dodge"/>
<rect x="5.94958" y="0.677129" width="38.2734" height="40.2734" rx="6.63669" transform="rotate(7.52248 5.94958 0.677129)" stroke="#837747" stroke-width="1.20667"/>
</svg>
