<svg width="42" height="40" viewBox="0 0 42 40" fill="none" xmlns="http://www.w3.org/2000/svg">
<rect x="0.578269" y="6.57443" width="35" height="33" rx="5.5" transform="rotate(-9.8648 0.578269 6.57443)" fill="#C08319" style="mix-blend-mode:color-dodge"/>
<path d="M16.6453 26.8373C15.4276 27.0491 14.3291 26.966 13.3499 26.5882C12.3805 26.1965 11.5701 25.564 10.9189 24.6906C10.2656 23.8055 9.8279 22.7245 9.60587 21.4476C9.38589 20.1826 9.435 19.0292 9.75319 17.9872C10.0693 16.9335 10.6176 16.0586 11.3979 15.3627C12.19 14.6646 13.1949 14.2097 14.4126 13.998C15.8313 13.7513 17.0437 13.8937 18.0496 14.4252C19.0653 14.9428 19.8032 15.7889 20.2632 16.9635L18.6139 17.2503C18.2912 16.5147 17.7941 15.9678 17.1228 15.6095C16.4613 15.2373 15.6339 15.1376 14.6408 15.3103C13.7541 15.4645 13.0157 15.806 12.4256 16.335C11.8335 16.8521 11.421 17.5267 11.1881 18.3589C10.965 19.1772 10.9459 20.1184 11.131 21.1824C11.316 22.2465 11.6527 23.1319 12.141 23.8387C12.6391 24.5316 13.2551 25.0274 13.9891 25.326C14.7211 25.6129 15.5304 25.6792 16.4171 25.525C17.4102 25.3523 18.1574 24.991 18.6585 24.441C19.1695 23.8771 19.4538 23.2004 19.5113 22.4108L21.1606 22.124C21.12 23.3613 20.709 24.395 19.9276 25.2251C19.1581 26.0532 18.064 26.5906 16.6453 26.8373ZM22.9461 20.8635L22.7272 19.6044L26.1143 19.0154L25.5531 15.7878L26.8831 15.5565L27.4444 18.7841L30.8315 18.1951L31.0505 19.4542L27.6633 20.0432L28.2277 23.2885L26.8976 23.5198L26.3333 20.2745L22.9461 20.8635Z" fill="#FF9D04" style="mix-blend-mode:color-dodge"/>
<rect x="0.578269" y="6.57443" width="35" height="33" rx="5.5" transform="rotate(-9.8648 0.578269 6.57443)" stroke="#835647"/>
</svg>
