<svg width="67" height="67" viewBox="0 0 67 67" fill="none" xmlns="http://www.w3.org/2000/svg">
<path d="M44.7356 20.8207C45.7004 17.2198 49.4017 15.0829 53.0026 16.0477C56.6035 17.0126 58.7404 20.7139 57.7756 24.3148C56.8107 27.9157 53.1094 30.0526 49.5085 29.0877C47.6681 28.5946 46.2101 27.3867 45.3532 25.8426L25.4394 29.9177C25.4028 30.2683 25.3382 30.6205 25.2441 30.9718C25.1499 31.3232 25.0297 31.6607 24.8861 31.9826L40.0943 45.4686C41.6085 44.5598 43.4752 44.2426 45.3157 44.7358C48.9166 45.7006 51.0535 49.4019 50.0886 53.0028C49.1238 56.6037 45.4225 58.7406 41.8216 57.7758C38.2207 56.8109 36.0838 53.1096 37.0486 49.5087C37.1428 49.1574 37.2629 48.8201 37.4065 48.4981L22.1982 35.0121C20.6841 35.9208 18.8174 36.238 16.977 35.7448C13.3761 34.78 11.2392 31.0787 12.2041 27.4778C13.1689 23.8769 16.8702 21.74 20.4711 22.7048C22.3116 23.198 23.7696 24.406 24.6265 25.9501L44.5402 21.8751C44.5768 21.5244 44.6414 21.1721 44.7356 20.8207Z" fill="#C7C7C7" style="mix-blend-mode:color-dodge"/>
</svg>
