<svg width="53" height="55" viewBox="0 0 53 55" fill="none" xmlns="http://www.w3.org/2000/svg">
<path d="M21.5008 2.8105C21.2239 1.51426 19.9486 0.687904 18.6523 0.96479C17.3561 1.24168 16.5298 2.51695 16.8066 3.8132L22.5645 30.7686L11.2266 22.9532C10.1353 22.201 8.64073 22.4758 7.88846 23.5672C7.13619 24.6585 7.41105 26.153 8.50238 26.9053L24.8105 38.1467C25.3541 38.5214 26.0282 38.6556 26.6739 38.5177C27.3197 38.3798 27.88 37.9819 28.2231 37.4177L38.515 20.4944C39.2038 19.3619 38.844 17.8855 37.7115 17.1968C36.579 16.508 35.1026 16.8678 34.4139 18.0003L27.2586 29.7659L21.5008 2.8105Z" fill="#C7C7C7" style="mix-blend-mode:color-dodge"/>
<path d="M5.49716 38.951C5.22028 37.6547 3.945 36.8284 2.64876 37.1053C1.35251 37.3821 0.526162 38.6574 0.803049 39.9537L2.47421 47.7772C3.48946 52.5301 8.16547 55.56 12.9184 54.5448L45.7772 47.5259C50.5301 46.5107 53.56 41.8347 52.5448 37.0818L50.8736 29.2582C50.5967 27.962 49.3214 27.1356 48.0252 27.4125C46.729 27.6894 45.9026 28.9647 46.1795 30.2609L47.8506 38.0845C48.3121 40.2449 46.9349 42.3703 44.7745 42.8318L11.9157 49.8507C9.75526 50.3121 7.6298 48.9349 7.16832 46.7745L5.49716 38.951Z" fill="#C7C7C7" style="mix-blend-mode:color-dodge"/>
</svg>
